<?xml version="1.0" encoding="UTF-8" standalone="no"?>
<svg
   xmlns:dc="http://purl.org/dc/elements/1.1/"
   xmlns:cc="http://creativecommons.org/ns#"
   xmlns:rdf="http://www.w3.org/1999/02/22-rdf-syntax-ns#"
   xmlns:svg="http://www.w3.org/2000/svg"
   xmlns="http://www.w3.org/2000/svg"
   xmlns:sodipodi="http://sodipodi.sourceforge.net/DTD/sodipodi-0.dtd"
   xmlns:inkscape="http://www.inkscape.org/namespaces/inkscape"
   width="500"
   height="500"
   viewBox="0 0 500.00001 500.00001"
   version="1.1"
   id="svg3796"
   sodipodi:docname="jogging timer.svg"
   inkscape:version="0.92.3 (2405546, 2018-03-11)">
  <metadata
     id="metadata3802">
    <rdf:RDF>
      <cc:Work
         rdf:about="">
        <dc:format>image/svg+xml</dc:format>
        <dc:type
           rdf:resource="http://purl.org/dc/dcmitype/StillImage" />
        <dc:title></dc:title>
      </cc:Work>
    </rdf:RDF>
  </metadata>
  <defs
     id="defs3800" />
  <sodipodi:namedview
     pagecolor="#ffffff"
     bordercolor="#666666"
     borderopacity="1"
     objecttolerance="10"
     gridtolerance="10"
     guidetolerance="10"
     inkscape:pageopacity="0"
     inkscape:pageshadow="2"
     inkscape:window-width="1600"
     inkscape:window-height="837"
     id="namedview3798"
     showgrid="false"
     inkscape:zoom="0.86915209"
     inkscape:cx="-169.34737"
     inkscape:cy="265.1694"
     inkscape:window-x="-8"
     inkscape:window-y="-8"
     inkscape:window-maximized="1"
     inkscape:current-layer="svg3796"
     showguides="true"
     fit-margin-top="10"
     fit-margin-right="2"
     fit-margin-bottom="2"
     fit-margin-left="10" />
  <path
     d="M 8.6271186,-29.743043 H 32.627119 V -5.7430435 H 8.6271186 Z"
     id="path3792"
     inkscape:connector-curvature="0"
     style="fill:none" />
  <path
     d="M 173.53906,17.692947 H 95.221198 V 43.798944 H 173.53906 Z M 121.3272,187.38162 h 26.10586 v -78.3178 H 121.3272 Z m 104.81532,-86.2801 18.53546,-18.535236 C 239.06497,75.909257 232.9303,69.64383 226.27317,64.161545 L 207.73798,82.6968 C 187.50579,66.511084 162.05244,56.851893 134.38014,56.851893 c -64.873333,0 -117.47686,52.603537 -117.47686,117.476847 0,64.87335 52.473007,117.47688 117.47686,117.47688 65.00383,0 117.47687,-52.60353 117.47687,-117.47688 0,-27.67227 -9.65921,-53.12563 -25.71449,-73.22722 z m -91.76238,164.59812 c -50.515044,0 -91.370888,-40.85583 -91.370888,-91.3709 0,-50.51503 40.855844,-91.370872 91.370888,-91.370872 50.51507,0 91.37089,40.855842 91.37089,91.370872 0,50.51507 -40.85582,91.3709 -91.37089,91.3709 z"
     id="path3794"
     inkscape:connector-curvature="0"
     style="stroke-width:13.05298328" />
  <path
     inkscape:connector-curvature="0"
     d="m 389.60039,190.71558 c 18.59182,0 33.80325,-15.21148 33.80325,-33.8033 0,-18.59182 -15.21143,-33.8033 -33.80325,-33.8033 -18.59176,0 -33.80326,15.21148 -33.80326,33.8033 0,18.59182 15.2115,33.8033 33.80326,33.8033 z m -60.84597,234.933 16.90181,-74.36742 35.49328,33.80334 v 101.41001 h 33.80336 V 359.73214 l -35.49348,-33.8034 10.141,-50.70494 c 21.97222,25.35252 55.77554,42.2542 92.95912,42.2542 v -33.80334 c -32.11314,0 -59.15587,-16.9017 -72.6772,-40.56395 l -16.90153,-27.04256 c -6.76073,-10.14105 -16.90179,-16.90178 -28.73281,-16.90178 -5.07048,0 -8.45084,1.69099 -13.52141,1.69099 l -87.88859,37.18359 v 79.43784 h 33.80336 v -57.46571 l 30.42301,-11.83117 -27.04274,136.90333 -82.81798,-16.90172 -6.76072,33.80339 z"
     id="path3727"
     style="stroke-width:16.9016552"
     inkscape:transform-center-x="-14.07096"
     inkscape:transform-center-y="21.106431" />
</svg>
